<svg width="24" height="164" viewBox="0 0 24 164" fill="none" xmlns="http://www.w3.org/2000/svg">
<path d="M12 30L12 1" stroke="#009263" stroke-linecap="round"/>
<path d="M9.14 117.36L19.3 121.68C19.5533 121.773 19.7533 121.92 19.9 122.12C20.0333 122.307 20.1 122.513 20.1 122.74C20.1 123.1 20 123.367 19.8 123.54C19.6 123.713 19.3533 123.8 19.06 123.8C18.94 123.8 18.8133 123.78 18.68 123.74L6.72 118.76C6.45333 118.653 6.24667 118.493 6.1 118.28C5.95333 118.053 5.89333 117.813 5.92 117.56C5.92 117.32 5.99333 117.1 6.14 116.9C6.27333 116.687 6.46667 116.533 6.72 116.44L18.44 111.52C18.6133 111.453 18.7733 111.42 18.92 111.42C19.28 111.42 19.5667 111.54 19.78 111.78C19.9933 112.007 20.1 112.26 20.1 112.54C20.1 112.78 20.0267 113 19.88 113.2C19.7333 113.387 19.5333 113.533 19.28 113.64L9.26 117.94L9.14 117.36ZM16.86 121.06L14.56 119.96V114.56L16.86 114.18V121.06ZM9.1 104.587C9.1 103.653 9.34 102.82 9.82 102.087C10.2867 101.34 10.9333 100.753 11.76 100.327C12.5867 99.8866 13.5467 99.6666 14.64 99.6666C15.7333 99.6666 16.7 99.8866 17.54 100.327C18.3667 100.753 19.02 101.333 19.5 102.067C19.9667 102.787 20.2 103.6 20.2 104.507C20.2 105.04 20.1133 105.54 19.94 106.007C19.7667 106.473 19.5467 106.887 19.28 107.247C19.0133 107.593 18.7467 107.867 18.48 108.067C18.2 108.253 17.9667 108.347 17.78 108.347L17.52 107.727H18.98C19.3267 107.727 19.62 107.84 19.86 108.067C20.0867 108.293 20.2 108.58 20.2 108.927C20.2 109.273 20.0867 109.56 19.86 109.787C19.6333 110.013 19.34 110.127 18.98 110.127H6.42C6.07333 110.127 5.78667 110.013 5.56 109.787C5.32 109.56 5.2 109.273 5.2 108.927C5.2 108.58 5.32 108.293 5.56 108.067C5.78667 107.84 6.07333 107.727 6.42 107.727H11.5L11.32 108.067C11.1467 108.067 10.94 107.973 10.7 107.787C10.4467 107.6 10.2 107.347 9.96 107.027C9.70667 106.707 9.5 106.34 9.34 105.927C9.18 105.5 9.1 105.053 9.1 104.587ZM11.3 104.887C11.3 105.473 11.4467 105.987 11.74 106.427C12.0333 106.867 12.4333 107.213 12.94 107.467C13.4333 107.707 14 107.827 14.64 107.827C15.2667 107.827 15.84 107.707 16.36 107.467C16.8667 107.213 17.2667 106.867 17.56 106.427C17.8533 105.987 18 105.473 18 104.887C18 104.3 17.8533 103.793 17.56 103.367C17.2667 102.927 16.8667 102.587 16.36 102.347C15.84 102.093 15.2667 101.967 14.64 101.967C14 101.967 13.4333 102.093 12.94 102.347C12.4333 102.587 12.0333 102.927 11.74 103.367C11.4467 103.793 11.3 104.3 11.3 104.887ZM14.66 87.388C15.7533 87.388 16.72 87.6346 17.56 88.128C18.3867 88.608 19.0333 89.2613 19.5 90.088C19.9667 90.9013 20.2 91.8146 20.2 92.828C20.2 93.8413 19.9667 94.7613 19.5 95.588C19.0333 96.4013 18.3867 97.0546 17.56 97.548C16.72 98.028 15.7533 98.268 14.66 98.268C13.5667 98.268 12.6067 98.028 11.78 97.548C10.94 97.0546 10.2867 96.4013 9.82 95.588C9.34 94.7613 9.1 93.8413 9.1 92.828C9.1 91.8146 9.34 90.9013 9.82 90.088C10.2867 89.2613 10.94 88.608 11.78 88.128C12.6067 87.6346 13.5667 87.388 14.66 87.388ZM14.66 89.788C13.98 89.788 13.3933 89.928 12.9 90.208C12.3933 90.4746 12 90.8413 11.72 91.308C11.44 91.7613 11.3 92.268 11.3 92.828C11.3 93.388 11.44 93.9013 11.72 94.368C12 94.8213 12.3933 95.188 12.9 95.468C13.3933 95.7346 13.98 95.868 14.66 95.868C15.3267 95.868 15.9133 95.7346 16.42 95.468C16.9133 95.188 17.3 94.8213 17.58 94.368C17.86 93.9013 18 93.388 18 92.828C18 92.268 17.86 91.7613 17.58 91.308C17.3 90.8413 16.9133 90.4746 16.42 90.208C15.9133 89.928 15.3267 89.788 14.66 89.788ZM9.3 77.5475C9.3 77.2008 9.42 76.9142 9.66 76.6875C9.88667 76.4608 10.1733 76.3475 10.52 76.3475H15.6C17.0133 76.3475 18.1333 76.7408 18.96 77.5275C19.7867 78.3142 20.2 79.4475 20.2 80.9275C20.2 82.4075 19.7867 83.5408 18.96 84.3275C18.1333 85.1008 17.0133 85.4875 15.6 85.4875H10.52C10.1733 85.4875 9.88667 85.3742 9.66 85.1475C9.42 84.9208 9.3 84.6342 9.3 84.2875C9.3 83.9408 9.42 83.6542 9.66 83.4275C9.88667 83.2008 10.1733 83.0875 10.52 83.0875H15.6C16.4133 83.0875 17.02 82.9075 17.42 82.5475C17.8067 82.1875 18 81.6475 18 80.9275C18 80.1942 17.8067 79.6475 17.42 79.2875C17.02 78.9275 16.4133 78.7475 15.6 78.7475H10.52C10.1733 78.7475 9.88667 78.6342 9.66 78.4075C9.42 78.1808 9.3 77.8942 9.3 77.5475ZM9.5 73.8292V69.0892C9.5 68.7692 9.60667 68.5026 9.82 68.2892C10.0333 68.0759 10.3 67.9692 10.62 67.9692C10.9267 67.9692 11.1867 68.0759 11.4 68.2892C11.6 68.5026 11.7 68.7692 11.7 69.0892V73.8292C11.7 74.1492 11.5933 74.4159 11.38 74.6292C11.1667 74.8426 10.9 74.9492 10.58 74.9492C10.2733 74.9492 10.02 74.8426 9.82 74.6292C9.60667 74.4159 9.5 74.1492 9.5 73.8292ZM7 71.6892C7 71.3426 7.12 71.0626 7.36 70.8492C7.58667 70.6226 7.87333 70.5092 8.22 70.5092H17.12C17.3067 70.5092 17.46 70.4759 17.58 70.4092C17.7 70.3292 17.7867 70.2292 17.84 70.1092C17.8933 69.9759 17.92 69.8359 17.92 69.6892C17.92 69.5292 17.8933 69.3826 17.84 69.2492C17.7733 69.1159 17.74 68.9626 17.74 68.7892C17.74 68.6026 17.8267 68.4359 18 68.2892C18.1733 68.1292 18.4133 68.0492 18.72 68.0492C19.0933 68.0492 19.4 68.2559 19.64 68.6692C19.88 69.0692 20 69.5026 20 69.9692C20 70.2492 19.98 70.5626 19.94 70.9092C19.8867 71.2426 19.7733 71.5626 19.6 71.8692C19.4133 72.1626 19.1333 72.4092 18.76 72.6092C18.3867 72.8092 17.8733 72.9092 17.22 72.9092H8.22C7.87333 72.9092 7.58667 72.7959 7.36 72.5692C7.12 72.3292 7 72.0359 7 71.6892ZM9.3 52.6202C9.3 52.2735 9.42 51.9868 9.66 51.7602C9.88667 51.5335 10.1733 51.4202 10.52 51.4202H15.6C17.0133 51.4202 18.1333 51.8135 18.96 52.6002C19.7867 53.3868 20.2 54.5202 20.2 56.0002C20.2 57.4802 19.7867 58.6135 18.96 59.4002C18.1333 60.1735 17.0133 60.5602 15.6 60.5602H10.52C10.1733 60.5602 9.88667 60.4468 9.66 60.2202C9.42 59.9935 9.3 59.7068 9.3 59.3602C9.3 59.0135 9.42 58.7268 9.66 58.5002C9.88667 58.2735 10.1733 58.1602 10.52 58.1602H15.6C16.4133 58.1602 17.02 57.9802 17.42 57.6202C17.8067 57.2602 18 56.7202 18 56.0002C18 55.2668 17.8067 54.7202 17.42 54.3602C17.02 54.0002 16.4133 53.8202 15.6 53.8202H10.52C10.1733 53.8202 9.88667 53.7068 9.66 53.4802C9.42 53.2535 9.3 52.9668 9.3 52.6202ZM18.34 49.6419C18.1533 49.7752 17.9133 49.8352 17.62 49.8219C17.3267 49.8085 17.0733 49.6352 16.86 49.3019C16.7267 49.0885 16.6733 48.8619 16.7 48.6219C16.7133 48.3819 16.8333 48.1485 17.06 47.9219C17.4467 47.5352 17.7467 47.1285 17.96 46.7019C18.1733 46.2752 18.28 45.7419 18.28 45.1019C18.2667 44.9019 18.24 44.6819 18.2 44.4419C18.1467 44.2019 18.04 43.9952 17.88 43.8219C17.7067 43.6352 17.4467 43.5419 17.1 43.5419C16.8067 43.5419 16.5733 43.6419 16.4 43.8419C16.2267 44.0419 16.08 44.3085 15.96 44.6419C15.84 44.9619 15.7267 45.3219 15.62 45.7219C15.5 46.1352 15.3667 46.5619 15.22 47.0019C15.0733 47.4285 14.8867 47.8219 14.66 48.1819C14.42 48.5419 14.1067 48.8352 13.72 49.0619C13.3333 49.2885 12.8467 49.4019 12.26 49.4019C11.5933 49.4019 11.0267 49.2152 10.56 48.8419C10.0933 48.4685 9.73333 47.9885 9.48 47.4019C9.22667 46.8019 9.1 46.1752 9.1 45.5219C9.1 45.1085 9.15333 44.6752 9.26 44.2219C9.35333 43.7685 9.51333 43.3352 9.74 42.9219C9.95333 42.5085 10.24 42.1619 10.6 41.8819C10.8 41.7352 11.04 41.6485 11.32 41.6219C11.6 41.5952 11.8533 41.7219 12.08 42.0019C12.24 42.2019 12.3133 42.4352 12.3 42.7019C12.2733 42.9685 12.18 43.1885 12.02 43.3619C11.7267 43.5885 11.4933 43.8952 11.32 44.2819C11.1467 44.6552 11.06 45.0885 11.06 45.5819C11.06 45.7819 11.0867 46.0019 11.14 46.2419C11.18 46.4685 11.28 46.6685 11.44 46.8419C11.5867 47.0152 11.8267 47.1019 12.16 47.1019C12.4667 47.1019 12.7133 47.0019 12.9 46.8019C13.0733 46.6019 13.22 46.3352 13.34 46.0019C13.4467 45.6552 13.5533 45.2885 13.66 44.9019C13.7667 44.5019 13.8933 44.0952 14.04 43.6819C14.1867 43.2685 14.38 42.8885 14.62 42.5419C14.86 42.1952 15.1733 41.9152 15.56 41.7019C15.9333 41.4885 16.4133 41.3819 17 41.3819C17.68 41.3819 18.26 41.5819 18.74 41.9819C19.22 42.3819 19.5867 42.8819 19.84 43.4819C20.08 44.0819 20.2 44.6952 20.2 45.3219C20.2 46.1085 20.0667 46.8952 19.8 47.6819C19.52 48.4685 19.0333 49.1219 18.34 49.6419Z" fill="black"/>
<path d="M12 163L12 134" stroke="#009263" stroke-linecap="round"/>
</svg>
