<svg width="24" height="189" viewBox="0 0 24 189" fill="none" xmlns="http://www.w3.org/2000/svg">
<path d="M12 30L12 1" stroke="#009263" stroke-linecap="round"/>
<path d="M13 134.62C14 134.62 14.9333 134.787 15.8 135.12C16.6667 135.453 17.4333 135.927 18.1 136.54C18.7533 137.14 19.2667 137.86 19.64 138.7C20.0133 139.527 20.2 140.433 20.2 141.42C20.2 142.407 20.0133 143.313 19.64 144.14C19.2667 144.967 18.7533 145.687 18.1 146.3C17.4333 146.9 16.6667 147.367 15.8 147.7C14.9333 148.033 14 148.2 13 148.2C12 148.2 11.0667 148.033 10.2 147.7C9.33333 147.367 8.57333 146.9 7.92 146.3C7.25333 145.687 6.73333 144.967 6.36 144.14C5.98667 143.313 5.8 142.407 5.8 141.42C5.8 140.433 5.98667 139.527 6.36 138.7C6.73333 137.86 7.25333 137.14 7.92 136.54C8.57333 135.927 9.33333 135.453 10.2 135.12C11.0667 134.787 12 134.62 13 134.62ZM13 137.22C12.1067 137.22 11.3 137.4 10.58 137.76C9.84667 138.12 9.26667 138.613 8.84 139.24C8.41333 139.867 8.2 140.593 8.2 141.42C8.2 142.247 8.41333 142.973 8.84 143.6C9.26667 144.227 9.84 144.72 10.56 145.08C11.28 145.427 12.0933 145.6 13 145.6C13.8933 145.6 14.7067 145.427 15.44 145.08C16.16 144.72 16.7333 144.227 17.16 143.6C17.5867 142.973 17.8 142.247 17.8 141.42C17.8 140.593 17.5867 139.867 17.16 139.24C16.7333 138.613 16.16 138.12 15.44 137.76C14.7067 137.4 13.8933 137.22 13 137.22ZM9.3 124.784C9.3 124.438 9.42 124.151 9.66 123.924C9.88667 123.698 10.1733 123.584 10.52 123.584H15.6C17.0133 123.584 18.1333 123.978 18.96 124.764C19.7867 125.551 20.2 126.684 20.2 128.164C20.2 129.644 19.7867 130.778 18.96 131.564C18.1333 132.338 17.0133 132.724 15.6 132.724H10.52C10.1733 132.724 9.88667 132.611 9.66 132.384C9.42 132.158 9.3 131.871 9.3 131.524C9.3 131.178 9.42 130.891 9.66 130.664C9.88667 130.438 10.1733 130.324 10.52 130.324H15.6C16.4133 130.324 17.02 130.144 17.42 129.784C17.8067 129.424 18 128.884 18 128.164C18 127.431 17.8067 126.884 17.42 126.524C17.02 126.164 16.4133 125.984 15.6 125.984H10.52C10.1733 125.984 9.88667 125.871 9.66 125.644C9.42 125.418 9.3 125.131 9.3 124.784ZM20 119.986C20 120.333 19.8867 120.619 19.66 120.846C19.42 121.073 19.1267 121.186 18.78 121.186H10.52C10.1733 121.186 9.88667 121.073 9.66 120.846C9.42 120.619 9.3 120.333 9.3 119.986C9.3 119.639 9.42 119.353 9.66 119.126C9.88667 118.899 10.1733 118.786 10.52 118.786H12.4L11.06 118.926C10.74 118.779 10.46 118.593 10.22 118.366C9.96667 118.126 9.76 117.859 9.6 117.566C9.42667 117.273 9.3 116.959 9.22 116.626C9.14 116.293 9.1 115.959 9.1 115.626C9.1 115.226 9.21333 114.893 9.44 114.626C9.66667 114.346 9.93333 114.206 10.24 114.206C10.68 114.206 11 114.319 11.2 114.546C11.3867 114.773 11.48 115.019 11.48 115.286C11.48 115.539 11.4333 115.773 11.34 115.986C11.2467 116.186 11.2 116.419 11.2 116.686C11.2 116.926 11.26 117.173 11.38 117.426C11.4867 117.666 11.66 117.893 11.9 118.106C12.14 118.306 12.44 118.473 12.8 118.606C13.1467 118.726 13.56 118.786 14.04 118.786H18.78C19.1267 118.786 19.42 118.899 19.66 119.126C19.8867 119.353 20 119.639 20 119.986ZM5.98 105.849C5.98 105.662 6.03333 105.469 6.14 105.269C6.23333 105.055 6.36 104.895 6.52 104.789L14 99.9286L13.96 100.929L6.52 95.9486C6.16 95.6953 5.98 95.3686 5.98 94.9686C5.98 94.6486 6.09333 94.3619 6.32 94.1086C6.54667 93.8553 6.84 93.7286 7.2 93.7286H18.78C19.1267 93.7286 19.42 93.8419 19.66 94.0686C19.8867 94.2953 20 94.5953 20 94.9686C20 95.3419 19.8867 95.6486 19.66 95.8886C19.42 96.1153 19.1267 96.2286 18.78 96.2286H9.36L9.54 95.4486L15.76 99.5286C15.9067 99.6486 16.0333 99.8019 16.14 99.9886C16.2467 100.162 16.2933 100.342 16.28 100.529C16.2933 100.702 16.2467 100.882 16.14 101.069C16.0333 101.242 15.9067 101.389 15.76 101.509L9.72 105.329L8.66 104.809H18.78C19.1267 104.809 19.42 104.915 19.66 105.129C19.8867 105.342 20 105.622 20 105.969C20 106.302 19.8867 106.575 19.66 106.789C19.42 107.002 19.1267 107.109 18.78 107.109H7.2C6.86667 107.109 6.58 106.989 6.34 106.749C6.1 106.495 5.98 106.195 5.98 105.849ZM18.78 88.8619C19.1267 88.8619 19.42 88.9752 19.66 89.2019C19.8867 89.4285 20 89.7152 20 90.0619C20 90.4085 19.8867 90.6952 19.66 90.9219C19.42 91.1485 19.1267 91.2619 18.78 91.2619H10.52C10.1733 91.2619 9.88667 91.1485 9.66 90.9219C9.42 90.6952 9.3 90.4085 9.3 90.0619C9.3 89.7152 9.42 89.4285 9.66 89.2019C9.88667 88.9752 10.1733 88.8619 10.52 88.8619H18.78ZM8 90.0819C8 90.5352 7.92667 90.8552 7.78 91.0419C7.63333 91.2285 7.37333 91.3219 7 91.3219H6.62C6.23333 91.3219 5.97333 91.2219 5.84 91.0219C5.69333 90.8085 5.62 90.4885 5.62 90.0619C5.62 89.5952 5.69333 89.2685 5.84 89.0819C5.98667 88.8952 6.24667 88.8019 6.62 88.8019H7C7.38667 88.8019 7.65333 88.9019 7.8 89.1019C7.93333 89.3019 8 89.6285 8 90.0819ZM18.34 87.2153C18.1533 87.3486 17.9133 87.4086 17.62 87.3953C17.3267 87.382 17.0733 87.2086 16.86 86.8753C16.7267 86.662 16.6733 86.4353 16.7 86.1953C16.7133 85.9553 16.8333 85.722 17.06 85.4953C17.4467 85.1086 17.7467 84.702 17.96 84.2753C18.1733 83.8486 18.28 83.3153 18.28 82.6753C18.2667 82.4753 18.24 82.2553 18.2 82.0153C18.1467 81.7753 18.04 81.5686 17.88 81.3953C17.7067 81.2086 17.4467 81.1153 17.1 81.1153C16.8067 81.1153 16.5733 81.2153 16.4 81.4153C16.2267 81.6153 16.08 81.882 15.96 82.2153C15.84 82.5353 15.7267 82.8953 15.62 83.2953C15.5 83.7086 15.3667 84.1353 15.22 84.5753C15.0733 85.002 14.8867 85.3953 14.66 85.7553C14.42 86.1153 14.1067 86.4086 13.72 86.6353C13.3333 86.862 12.8467 86.9753 12.26 86.9753C11.5933 86.9753 11.0267 86.7886 10.56 86.4153C10.0933 86.042 9.73333 85.562 9.48 84.9753C9.22667 84.3753 9.1 83.7486 9.1 83.0953C9.1 82.682 9.15333 82.2486 9.26 81.7953C9.35333 81.342 9.51333 80.9086 9.74 80.4953C9.95333 80.082 10.24 79.7353 10.6 79.4553C10.8 79.3086 11.04 79.222 11.32 79.1953C11.6 79.1686 11.8533 79.2953 12.08 79.5753C12.24 79.7753 12.3133 80.0086 12.3 80.2753C12.2733 80.542 12.18 80.762 12.02 80.9353C11.7267 81.162 11.4933 81.4686 11.32 81.8553C11.1467 82.2286 11.06 82.662 11.06 83.1553C11.06 83.3553 11.0867 83.5753 11.14 83.8153C11.18 84.042 11.28 84.242 11.44 84.4153C11.5867 84.5886 11.8267 84.6753 12.16 84.6753C12.4667 84.6753 12.7133 84.5753 12.9 84.3753C13.0733 84.1753 13.22 83.9086 13.34 83.5753C13.4467 83.2286 13.5533 82.862 13.66 82.4753C13.7667 82.0753 13.8933 81.6686 14.04 81.2553C14.1867 80.842 14.38 80.462 14.62 80.1153C14.86 79.7686 15.1733 79.4886 15.56 79.2753C15.9333 79.062 16.4133 78.9553 17 78.9553C17.68 78.9553 18.26 79.1553 18.74 79.5553C19.22 79.9553 19.5867 80.4553 19.84 81.0553C20.08 81.6553 20.2 82.2686 20.2 82.8953C20.2 83.682 20.0667 84.4686 19.8 85.2553C19.52 86.042 19.0333 86.6953 18.34 87.2153ZM18.34 77.7669C18.1533 77.9002 17.9133 77.9602 17.62 77.9469C17.3267 77.9335 17.0733 77.7602 16.86 77.4269C16.7267 77.2135 16.6733 76.9869 16.7 76.7469C16.7133 76.5069 16.8333 76.2735 17.06 76.0469C17.4467 75.6602 17.7467 75.2535 17.96 74.8269C18.1733 74.4002 18.28 73.8669 18.28 73.2269C18.2667 73.0269 18.24 72.8069 18.2 72.5669C18.1467 72.3269 18.04 72.1202 17.88 71.9469C17.7067 71.7602 17.4467 71.6669 17.1 71.6669C16.8067 71.6669 16.5733 71.7669 16.4 71.9669C16.2267 72.1669 16.08 72.4335 15.96 72.7669C15.84 73.0869 15.7267 73.4469 15.62 73.8469C15.5 74.2602 15.3667 74.6869 15.22 75.1269C15.0733 75.5535 14.8867 75.9469 14.66 76.3069C14.42 76.6669 14.1067 76.9602 13.72 77.1869C13.3333 77.4135 12.8467 77.5269 12.26 77.5269C11.5933 77.5269 11.0267 77.3402 10.56 76.9669C10.0933 76.5935 9.73333 76.1135 9.48 75.5269C9.22667 74.9269 9.1 74.3002 9.1 73.6469C9.1 73.2335 9.15333 72.8002 9.26 72.3469C9.35333 71.8935 9.51333 71.4602 9.74 71.0469C9.95333 70.6335 10.24 70.2869 10.6 70.0069C10.8 69.8602 11.04 69.7735 11.32 69.7469C11.6 69.7202 11.8533 69.8469 12.08 70.1269C12.24 70.3269 12.3133 70.5602 12.3 70.8269C12.2733 71.0935 12.18 71.3135 12.02 71.4869C11.7267 71.7135 11.4933 72.0202 11.32 72.4069C11.1467 72.7802 11.06 73.2135 11.06 73.7069C11.06 73.9069 11.0867 74.1269 11.14 74.3669C11.18 74.5935 11.28 74.7935 11.44 74.9669C11.5867 75.1402 11.8267 75.2269 12.16 75.2269C12.4667 75.2269 12.7133 75.1269 12.9 74.9269C13.0733 74.7269 13.22 74.4602 13.34 74.1269C13.4467 73.7802 13.5533 73.4135 13.66 73.0269C13.7667 72.6269 13.8933 72.2202 14.04 71.8069C14.1867 71.3935 14.38 71.0135 14.62 70.6669C14.86 70.3202 15.1733 70.0402 15.56 69.8269C15.9333 69.6135 16.4133 69.5069 17 69.5069C17.68 69.5069 18.26 69.7069 18.74 70.1069C19.22 70.5069 19.5867 71.0069 19.84 71.6069C20.08 72.2069 20.2 72.8202 20.2 73.4469C20.2 74.2335 20.0667 75.0202 19.8 75.8069C19.52 76.5935 19.0333 77.2469 18.34 77.7669ZM18.78 65.4384C19.1267 65.4384 19.42 65.5518 19.66 65.7784C19.8867 66.0051 20 66.2918 20 66.6384C20 66.9851 19.8867 67.2718 19.66 67.4984C19.42 67.7251 19.1267 67.8384 18.78 67.8384H10.52C10.1733 67.8384 9.88667 67.7251 9.66 67.4984C9.42 67.2718 9.3 66.9851 9.3 66.6384C9.3 66.2918 9.42 66.0051 9.66 65.7784C9.88667 65.5518 10.1733 65.4384 10.52 65.4384H18.78ZM8 66.6584C8 67.1118 7.92667 67.4318 7.78 67.6184C7.63333 67.8051 7.37333 67.8984 7 67.8984H6.62C6.23333 67.8984 5.97333 67.7984 5.84 67.5984C5.69333 67.3851 5.62 67.0651 5.62 66.6384C5.62 66.1718 5.69333 65.8451 5.84 65.6584C5.98667 65.4718 6.24667 65.3784 6.62 65.3784H7C7.38667 65.3784 7.65333 65.4784 7.8 65.6784C7.93333 65.8784 8 66.2051 8 66.6584ZM14.66 52.7919C15.7533 52.7919 16.72 53.0385 17.56 53.5319C18.3867 54.0119 19.0333 54.6652 19.5 55.4919C19.9667 56.3052 20.2 57.2185 20.2 58.2319C20.2 59.2452 19.9667 60.1652 19.5 60.9919C19.0333 61.8052 18.3867 62.4585 17.56 62.9519C16.72 63.4319 15.7533 63.6719 14.66 63.6719C13.5667 63.6719 12.6067 63.4319 11.78 62.9519C10.94 62.4585 10.2867 61.8052 9.82 60.9919C9.34 60.1652 9.1 59.2452 9.1 58.2319C9.1 57.2185 9.34 56.3052 9.82 55.4919C10.2867 54.6652 10.94 54.0119 11.78 53.5319C12.6067 53.0385 13.5667 52.7919 14.66 52.7919ZM14.66 55.1919C13.98 55.1919 13.3933 55.3319 12.9 55.6119C12.3933 55.8785 12 56.2452 11.72 56.7119C11.44 57.1652 11.3 57.6719 11.3 58.2319C11.3 58.7919 11.44 59.3052 11.72 59.7719C12 60.2252 12.3933 60.5919 12.9 60.8719C13.3933 61.1385 13.98 61.2719 14.66 61.2719C15.3267 61.2719 15.9133 61.1385 16.42 60.8719C16.9133 60.5919 17.3 60.2252 17.58 59.7719C17.86 59.3052 18 58.7919 18 58.2319C18 57.6719 17.86 57.1652 17.58 56.7119C17.3 56.2452 16.9133 55.8785 16.42 55.6119C15.9133 55.3319 15.3267 55.1919 14.66 55.1919ZM9.1 45.1714C9.1 44.1847 9.30667 43.4381 9.72 42.9314C10.1333 42.4114 10.6867 42.0581 11.38 41.8714C12.06 41.6714 12.82 41.5714 13.66 41.5714H18.78C19.1267 41.5714 19.42 41.6847 19.66 41.9114C19.8867 42.1381 20 42.4247 20 42.7714C20 43.1181 19.8867 43.4047 19.66 43.6314C19.42 43.8581 19.1267 43.9714 18.78 43.9714H13.66C13.22 43.9714 12.8267 44.0314 12.48 44.1514C12.12 44.2581 11.8333 44.4581 11.62 44.7514C11.4067 45.0447 11.3 45.4647 11.3 46.0114C11.3 46.5447 11.4067 46.9981 11.62 47.3714C11.8333 47.7314 12.12 48.0114 12.48 48.2114C12.8267 48.3981 13.22 48.4914 13.66 48.4914H18.78C19.1267 48.4914 19.42 48.6047 19.66 48.8314C19.8867 49.0581 20 49.3447 20 49.6914C20 50.0381 19.8867 50.3247 19.66 50.5514C19.42 50.7781 19.1267 50.8914 18.78 50.8914H10.52C10.1733 50.8914 9.88667 50.7781 9.66 50.5514C9.42 50.3247 9.3 50.0381 9.3 49.6914C9.3 49.3447 9.42 49.0581 9.66 48.8314C9.88667 48.6047 10.1733 48.4914 10.52 48.4914H11.38L11.32 48.7914C11.0933 48.6714 10.8533 48.4981 10.6 48.2714C10.3333 48.0447 10.0867 47.7781 9.86 47.4714C9.63333 47.1647 9.45333 46.8181 9.32 46.4314C9.17333 46.0447 9.1 45.6247 9.1 45.1714Z" fill="black"/>
<path d="M12 188L12 159" stroke="#009263" stroke-linecap="round"/>
</svg>
